<svg class="diagram-root" style="background: #f5f6f6" xmlns="http://www.w3.org/2000/svg" xmlns:xlink="http://www.w3.org/1999/xlink"><style>.diagram-root { font-family: "Helvetica Neue", sans-serif; font-size: 12px; } .t { overflow: visible; } .t-bg { y: 40; fill: #fff;   } .th { fill: #005aa0;   } .tht { fill: #fff; font-size: 14px;  } .tf { fill: #323c46; overflow: visible; } .tf.pk { fill: #005aa0; font-weight: bold; } .tf.fk { font-weight: bold; } .ty { fill: #adb1b5; font-weight: normal; text-anchor: end; } .r { fill: transparent; stroke: #c3c3c3; stroke-width: 1; } .l { stroke: 1; } .i { fill: #c2c7ce; stroke: #c2c7ce; } .i.ix { fill: #afb3b6; stroke: #000; } .fa { fill: transparent; overflow: visible; } .fa .bg.hover { fill: #f7f7f7; } .c { cy: 12; r: 4; stroke: #d2d2dc; fill: #d2d2dc; } .hr { fill: transparent; stroke: #323c46; stroke-opacity: 0.035; stroke-width: 13; } .dc { stroke: #fa5a3c; fill: #fa5a3c; } .x { stroke: white; stroke-width: 1; } .hl .th { fill: #1b9bff; } .hl .tht {  } .fhl .bg { fill: #e7f4ff; } .fhls .bg {  } .r.hl { stroke: #1b9bff; } .dim { opacity: 0.25; }</style><g class="drawing-wrapper" transform="translate(2, 18) scale(1,1)"><g class="rs"></g><g class="hrs"></g><g class="ts"><svg width="164.51" height="250" x="30" y="30" id="h250735507" class="t"><rect height="40" width="164.51" class="th"></rect><text x="13" y="25" class="tht">Earnings</text><rect height="210" width="164.51" class="t-bg"></rect><text x="13" y="61" class="tf">IndicatorVariable<tspan x="151.51" class="ty">string</tspan></text><text x="13" y="86" class="tf">AlternateName<tspan x="151.51" class="ty">string</tspan></text><text x="13" y="111" class="tf">StatusFlag<tspan x="151.51" class="ty">string</tspan></text><text x="13" y="136" class="tf">IndicatorName<tspan x="151.51" class="ty">string</tspan></text><text x="13" y="161" class="tf">Description<tspan x="151.51" class="ty">string</tspan></text><text x="13" y="186" class="tf">Units<tspan x="151.51" class="ty">string</tspan></text><text x="13" y="211" class="tf">Concept<tspan x="151.51" class="ty">string</tspan></text><text x="13" y="236" class="tf">Base<tspan x="151.51" class="ty">string</tspan></text></svg><svg width="164.51" height="250" x="205" y="30" id="h3873388270" class="t"><rect height="40" width="164.51" class="th"></rect><text x="13" y="25" class="tht">Flows</text><rect height="210" width="164.51" class="t-bg"></rect><text x="13" y="61" class="tf">IndicatorVariable<tspan x="151.51" class="ty">string</tspan></text><text x="13" y="86" class="tf">AlternateName<tspan x="151.51" class="ty">string</tspan></text><text x="13" y="111" class="tf">StatusFlag<tspan x="151.51" class="ty">string</tspan></text><text x="13" y="136" class="tf">IndicatorName<tspan x="151.51" class="ty">string</tspan></text><text x="13" y="161" class="tf">Description<tspan x="151.51" class="ty">string</tspan></text><text x="13" y="186" class="tf">Units<tspan x="151.51" class="ty">string</tspan></text><text x="13" y="211" class="tf">Concept<tspan x="151.51" class="ty">string</tspan></text><text x="13" y="236" class="tf">Base<tspan x="151.51" class="ty">string</tspan></text></svg><svg width="132.06" height="125" x="380" y="30" id="h827783715" class="t"><rect height="40" width="132.06" class="th"></rect><text x="13" y="25" class="tht">Geography</text><rect height="85" width="132.06" class="t-bg"></rect><text x="13" y="61" class="tf">geography<tspan x="119.06" class="ty">string</tspan></text><text x="13" y="86" class="tf">label<tspan x="119.06" class="ty">string</tspan></text><text x="13" y="111" class="tf">geo_label<tspan x="119.06" class="ty">string</tspan></text></svg><svg width="129.38" height="200" x="212" y="298" id="h393066978" class="t"><rect height="40" width="129.38" class="th"></rect><text x="13" y="25" class="tht">Institution</text><rect height="160" width="129.38" class="t-bg"></rect><text x="13" y="61" class="tf">Institution</text><text x="13" y="86" class="tf">label</text><text x="13" y="111" class="tf">city</text><text x="13" y="136" class="tf">institution_state</text><text x="13" y="161" class="tf">inst_level</text><text x="13" y="186" class="tf">statefips</text></svg><svg width="133.39" height="125" x="386" y="185" id="h1217290555" class="t"><rect height="40" width="133.39" class="th"></rect><text x="13" y="25" class="tht">StateOfInstitution</text><rect height="85" width="133.39" class="t-bg"></rect><text x="13" y="61" class="tf">geography</text><text x="13" y="86" class="tf">label</text><text x="13" y="111" class="tf">geo_level</text></svg><svg width="114.72" height="100" x="551" y="37" id="h4256882308" class="t"><rect height="40" width="114.72" class="th"></rect><text x="13" y="25" class="tht">DegreeLevel</text><rect height="60" width="114.72" class="t-bg"></rect><text x="13" y="61" class="tf">degree_level</text><text x="13" y="86" class="tf">label</text></svg><svg width="90.03" height="100" x="562" y="190" id="h2206721045" class="t"><rect height="40" width="90.03" class="th"></rect><text x="13" y="25" class="tht">CIPLevel</text><rect height="60" width="90.03" class="t-bg"></rect><text x="13" y="61" class="tf">cipLevel</text><text x="13" y="86" class="tf">label</text></svg><svg width="109.27" height="100" x="42" y="302" id="h278586401" class="t"><rect height="40" width="109.27" class="th"></rect><text x="13" y="25" class="tht">IndustryLevel</text><rect height="60" width="109.27" class="t-bg"></rect><text x="13" y="61" class="tf">ind_level</text><text x="13" y="86" class="tf">label</text></svg><svg width="160.74" height="575" x="713" y="43" id="h695306886" class="t"><rect height="40" width="160.74" class="th"></rect><text x="13" y="25" class="tht">EmploymentEarnings</text><rect height="535" width="160.74" class="t-bg"></rect><text x="13" y="61" class="tf">Y1_P25_Earnings</text><text x="13" y="86" class="tf">Y1_P50_Earnings</text><text x="13" y="111" class="tf">Y1_P75_Earnings</text><text x="13" y="136" class="tf">Y1_Grads_Earnings</text><text x="13" y="161" class="tf">Y5_P25_Earnings</text><text x="13" y="186" class="tf">Y5_P50_Earnings</text><text x="13" y="211" class="tf">Y5_P75_Earnings</text><text x="13" y="236" class="tf">Y5_Grads_Earnings</text><text x="13" y="261" class="tf">Y10_P25_Earnings</text><text x="13" y="286" class="tf">Y10_P50_Earnings</text><text x="13" y="311" class="tf">Y10_P75_Earnings</text><text x="13" y="336" class="tf">Y10_Grads_Earnings</text><text x="13" y="361" class="tf">Y1_IPEDS_Count</text><text x="13" y="386" class="tf">Y5_IPEDS_Count</text><text x="13" y="411" class="tf">Y10_IPEDS_Count</text><text x="13" y="436" class="tf">Institution</text><text x="13" y="461" class="tf">Inst_State</text><text x="13" y="486" class="tf">Degree_Level</text><text x="13" y="511" class="tf">CIP_LEVEL</text><text x="13" y="536" class="tf">CIPCode</text><text x="13" y="561" class="tf">Grad_Cohort</text></svg></g></g><text class="qdbd-link" x="10" y="20">www.quickdatabasediagrams.com</text></svg>